<svg xmlns="http://www.w3.org/2000/svg" version="1.1" xmlns:xlink="http://www.w3.org/1999/xlink" xmlns:svgjs="http://svgjs.dev/svgjs" width="1000" height="335" viewBox="0 0 1000 335"><g transform="matrix(1,0,0,1,-0.6060606060606233,-0.100395101199382)"><svg viewBox="0 0 396 133" data-background-color="#ffffff" preserveAspectRatio="xMidYMid meet" height="335" width="1000" xmlns="http://www.w3.org/2000/svg" xmlns:xlink="http://www.w3.org/1999/xlink"><g id="tight-bounds" transform="matrix(1,0,0,1,0.2400000000000091,0.03985835361049794)"><svg viewBox="0 0 395.52 132.92028329277898" height="132.92028329277898" width="395.52"><g><svg viewBox="0 0 395.52 132.92028329277898" height="132.92028329277898" width="395.52"><g><svg viewBox="0 0 395.52 132.92028329277898" height="132.92028329277898" width="395.52"><g id="textblocktransform"><svg viewBox="0 0 395.52 132.92028329277898" height="132.92028329277898" width="395.52" id="textblock"><g><rect width="395.52" height="100.18496717724288" fill="none" stroke-width="9.018103199999999" stroke="#00b899" data-fill-palette-color="none" data-stroke-palette-color="tertiary"></rect><rect width="395.52" height="32.7353161155361" y="100.18496717724288" fill="#00b899" data-fill-palette-color="tertiary"></rect></g><g><svg viewBox="0 0 395.52 100.18496717724288" height="100.18496717724288" width="395.52"><g transform="matrix(1,0,0,1,23.607599999999998,23.607599999999998)"><svg width="348.3048" viewBox="1.600000023841858 -34.75 228.47999572753906 34.75" height="52.969767177242886" data-palette-color="#00b899"><path d="M22.55-5.8L22.55-15.8 11.55-15.8 11.55-5.8Q13.55-5 14.3-4.15L14.3-4.15 13.8 0 2.1 0 1.6-4.15Q2.25-5 4.35-5.8L4.35-5.8 4.35-28.65Q2.3-29.4 1.6-30.35L1.6-30.35 2.1-34.5 13.8-34.5 14.3-30.35Q13.5-29.4 11.55-28.65L11.55-28.65 11.55-20.8 22.55-20.8 22.55-28.65Q20.5-29.4 19.8-30.35L19.8-30.35 20.3-34.5 32-34.5 32.5-30.35Q31.7-29.4 29.75-28.65L29.75-28.65 29.75-5.8Q31.75-5 32.5-4.15L32.5-4.15 32 0 20.3 0 19.8-4.15Q20.45-5 22.55-5.8L22.55-5.8ZM59.4-8.7L59.4 0 36.2 0 35.7-4.15Q36.35-5 38.45-5.8L38.45-5.8 38.45-28.65Q36.4-29.4 35.7-30.35L35.7-30.35 36.2-34.5 59-34.5 59-25.8 55.3-25.35Q54.15-26.35 53.45-29.05L53.45-29.05 45.65-29.05 45.65-20.45 52.6-20.45Q53.2-21.95 53.85-22.55L53.85-22.55 57-22.2 57-13.3 53.85-12.9Q53.2-13.4 52.6-15L52.6-15 45.65-15 45.65-5.45 53.85-5.45Q54.5-8.05 55.7-9.15L55.7-9.15 59.4-8.7ZM76.15-21.15L76.9-21.15Q77.2-22.35 78.7-25.15L78.7-25.15 80.6-28.75Q78.85-29.5 78.15-30.35L78.15-30.35 78.65-34.5 90.05-34.5 90.55-30.35Q89.65-29.25 87.2-28.45L87.2-28.45 80.7-17.95 87.45-5.9Q89.65-5.15 90.5-4.15L90.5-4.15 90 0 78.3 0 77.8-4.15Q78.4-4.85 79.9-5.55L79.9-5.55 77.6-10.45Q76.35-13 75.95-14.55L75.95-14.55 75.8-15.1 75.05-15.1Q74.6-13.4 73.25-10.55L73.25-10.55 71-5.75Q72.8-4.95 73.5-4.15L73.5-4.15 73 0 61.6 0 61.1-4.15Q62-5.25 64.45-6.05L64.45-6.05 71.25-18 64.75-28.55Q62.4-29.35 61.65-30.35L61.65-30.35 62.15-34.5 73.85-34.5 74.35-30.35Q73.7-29.55 72.35-29L72.35-29 74.35-25.25Q75.65-22.75 76.15-21.15L76.15-21.15ZM104.19-34.5L115.54-34.5Q121.44-34.5 124.12-33.77 126.79-33.05 127.94-32.05L127.94-32.05Q130.49-29.85 130.49-25.3L130.49-25.3Q130.49-21.9 126.84-18.85L126.84-18.85Q131.49-16.5 131.49-10.1L131.49-10.1Q131.49-5.1 128.22-2.68 124.94-0.25 118.44 0L118.44 0 104.19 0 103.69-4.15Q104.34-5 106.44-5.8L106.44-5.8 106.44-28.65Q104.39-29.4 103.69-30.35L103.69-30.35 104.19-34.5ZM118.09-14.95L118.09-14.95 113.64-14.95 113.64-5.45 117.09-5.45Q120.49-5.45 122.24-6.45 123.99-7.45 123.99-10.05 123.99-12.65 122.62-13.8 121.24-14.95 118.09-14.95ZM116.24-29.05L116.24-29.05 113.64-29.05 113.64-20.4 117.74-20.4Q120.29-20.4 121.64-21.7 122.99-23 122.99-24.88 122.99-26.75 122.04-27.7 121.09-28.65 119.84-28.85 118.59-29.05 116.24-29.05ZM144.94-34.75L151.79-34.75 161.74-5.9Q163.84-5.15 164.69-4.15L164.69-4.15 164.19 0 152.49 0 151.99-4.15Q152.59-4.95 154.39-5.65L154.39-5.65 153.04-9.85 143.04-9.85 141.79-5.8Q143.54-5.1 144.39-4.15L144.39-4.15 143.89 0 132.49 0 131.99-4.15Q132.89-5.3 135.34-6.05L135.34-6.05 144.94-34.75ZM148.34-27.75L147.64-27.75Q147.64-24.7 146.39-20.65L146.39-20.65 144.44-14.45 151.59-14.45 149.69-20.55Q148.54-24.05 148.39-26.9L148.39-26.9 148.34-27.75ZM174.19-18.85L174.19-18.85 174.19-5.7Q176.04-5 176.94-3.85L176.94-3.85 176.44 0 166.64 0 166.14-3.85Q167.04-5 168.89-5.7L168.89-5.7 168.89-28.8Q166.84-29.55 166.04-30.65L166.04-30.65 166.54-34.5 176.84-34.5 186.79-15.1Q187.89-13 188.94-9.5L188.94-9.5 189.29-8.3 189.84-8.5Q189.14-12.85 189.14-15.8L189.14-15.8 189.14-28.75Q187.34-29.45 186.39-30.65L186.39-30.65 186.89-34.5 196.69-34.5 197.19-30.65Q196.24-29.45 194.44-28.75L194.44-28.75 194.44 0 186.59 0 176.54-19.55Q175.44-21.65 174.39-25.2L174.39-25.2 174.04-26.35 173.49-26.15Q174.19-21.8 174.19-18.85ZM230.08-4.15L229.58 0 221.28 0 210.18-18 218.53-29.1Q217.13-29.75 216.58-30.45L216.58-30.45 217.08-34.5 228.48-34.5 228.98-30.45Q228.28-29.65 226.38-28.85L226.38-28.85 217.73-18.2 225.63-6.3Q228.88-5.6 230.08-4.15L230.08-4.15ZM200.43-34.5L212.13-34.5 212.63-30.35Q211.83-29.4 209.88-28.65L209.88-28.65 209.88-5.8Q211.88-5 212.63-4.15L212.63-4.15 212.13 0 200.43 0 199.93-4.15Q200.58-5 202.68-5.8L202.68-5.8 202.68-28.65Q200.63-29.4 199.93-30.35L199.93-30.35 200.43-34.5Z" opacity="1" transform="matrix(1,0,0,1,0,0)" fill="#00b899" class="wordmark-text-0" data-fill-palette-color="primary" id="text-0"></path></svg></g></svg></g></svg></g></svg></g><g></g></svg></g><defs></defs></svg><rect width="395.52" height="132.92028329277898" fill="none" stroke="none" visibility="hidden"></rect></g></svg></g></svg>